<?xml version="1.0" encoding="utf-8"?>
<!-- Generator: Adobe Illustrator 24.0.1, SVG Export Plug-In . SVG Version: 6.00 Build 0)  -->
<svg version="1.1" id="Layer_1" xmlns="http://www.w3.org/2000/svg" xmlns:xlink="http://www.w3.org/1999/xlink" x="0px" y="0px"
	 viewBox="0 0 421 360" style="enable-background:new 0 0 421 360;" xml:space="preserve">
<style type="text/css">
	.st0{enable-background:new    ;}
	.st1{fill:#1173E2;}
	.st2{fill:#FFFFFF;}
</style>
<g id="Component_6_1" transform="translate(15 5)">
	<g id="Group_53" transform="translate(-910 -1417)">
		<g transform="matrix(1, 0, 0, 1, 895, 1412)">
			<g class="st0">
				<path class="st1" d="M92.2,177.2c3.6,12.3,16.1,17.6,38.6,17.6c23.4,0,34.7-4.6,34.7-15.2c0-11.8-10.1-14.7-32.3-14.7H95.6
					v-40.2h34.7c20.2,0,30.6-1.2,30.6-11.1c0-8.7-10.6-13-31.6-13c-16.4,0-25.5,2.7-27.2,9.2H28.3C31,74.3,63.3,60,128.3,60
					c70.6,0,104.4,13.7,104.4,47.5c0,18.8-10.1,30.6-29.9,34.7c23.4,4.6,34.9,17.8,34.9,39.8c0,38.8-34.9,57.1-106,57.1
					c-72.5,0-107.7-17.4-109.7-61.9H92.2z"/>
			</g>
		</g>
		<g class="st0">
			<path class="st2" d="M1037.2,1549.6v27.4h-7.8v-21.3h-4.2v21.3h-7.8v-27.4H1037.2z"/>
			<path class="st2" d="M1050.1,1586.3h-7.8v-36.8h7v3.3c1.6-2.8,4.1-4,6.3-4c4,0,6.8,3.1,6.8,8.6v12.5c0,4.7-3.2,7.8-6.8,7.8
				c-2.1,0-3.8-1-5.6-3.2V1586.3z M1050.1,1558.5v9.9c0,2.2,0.8,3.2,2.3,3.2s2.3-1,2.3-3.2v-9.9c0-2.2-0.8-3.4-2.3-3.4
				S1050.1,1556.3,1050.1,1558.5z"/>
			<path class="st2" d="M1074.4,1549.6v12l-0.8,5.6v0.2l6.7-17.7h7.6v27.4h-7.1v-12.1l0.9-5.6v-0.1l-6.7,17.8h-7.6v-27.4H1074.4z"/>
			<path class="st2" d="M1100.7,1570.8h4.2v-21.3h7.8v21.3h4.2v-21.3h7.8v27.4h-31.6v-27.4h7.8V1570.8z"/>
			<path class="st2" d="M1151.2,1549.6v27.4h-7.8v-21.3h-4.4v8.4c0,10.6-2.5,13.4-7.5,13.4c-1,0-2.6-0.2-3.9-0.6v-5.5
				c0.5,0.1,0.9,0.2,1.3,0.2c2.4,0,2.6-2.2,2.6-10.8v-11.3H1151.2z"/>
			<path class="st2" d="M1163.4,1549.6v12l-0.8,5.6v0.2l6.7-17.7h7.6v27.4h-7.1v-12.1l0.9-5.6v-0.1l-6.7,17.8h-7.6v-27.4H1163.4z"/>
			<path class="st2" d="M1215,1565.4v1.5c0,7.8-3.8,10.8-10,10.8s-10-3.3-10-9.9v-8.6c0-7.9,4.3-10.5,10.1-10.5
				c5.8,0,10,2.6,10,10.5v0.8h-7.8v-2.4c0-2-0.8-2.8-2.2-2.8c-1.4,0-2.3,0.9-2.3,2.4v11.6c0,1.9,0.8,3,2.3,3c1.4,0,2.3-1,2.3-3v-3.4
				H1215z"/>
			<path class="st2" d="M1219.6,1549.6h11.2c4.3,0,7.4,2.4,7.4,6.7c0,3.7-1.5,5.4-4.2,6.4c3.1,1.2,4.7,2.9,4.7,6.8
				c0,3.7-2.1,7.5-7.3,7.5h-11.8V1549.6z M1227,1560.6h1.3c1.9,0,2.7-0.9,2.7-2.9c0-2-0.8-2.8-2.7-2.8h-1.3V1560.6z M1227,1571.6
				h1.7c2,0,2.8-1,2.8-2.8c0-2.1-0.8-3.2-2.8-3.2h-1.7V1571.6z"/>
			<path class="st2" d="M1263.1,1559.3v7.9c0,7.9-4.2,10.6-10,10.6c-5.8,0-10.1-2.7-10.1-10.5v-8c0-7.9,4.2-10.5,10.1-10.5
				C1258.8,1548.8,1263.1,1551.4,1263.1,1559.3z M1250.7,1557.7v11.2c0,1.9,0.9,2.9,2.3,2.9c1.4,0,2.2-1,2.2-2.8v-11.4
				c0-2-0.8-2.9-2.2-2.9C1251.5,1554.9,1250.7,1555.9,1250.7,1557.7z"/>
			<path class="st2" d="M1275.5,1560.1h4.1v-0.8c0-7.9,4.2-10.5,10-10.5s10,2.6,10,10.5v7.9c0,7.9-4.2,10.6-10,10.6s-10-2.6-10-10.5
				v-1.4h-4.1v11.1h-7.8v-27.4h7.8V1560.1z M1289.7,1554.9c-1.6,0-2.3,1.1-2.3,2.5v11.6c0,1.9,0.9,2.9,2.3,2.9
				c1.4,0,2.2-0.9,2.2-2.7v-11.4C1291.9,1555.7,1291.1,1554.9,1289.7,1554.9z"/>
		</g>
		<g class="st0">
			<path class="st2" d="M1017.5,1605.6h11.2c4.3,0,7.4,2.4,7.4,6.7c0,3.7-1.5,5.4-4.2,6.4c3.1,1.2,4.7,2.9,4.7,6.8
				c0,3.7-2.1,7.5-7.3,7.5h-11.8V1605.6z M1024.9,1616.6h1.3c1.9,0,2.7-0.9,2.7-2.9c0-2-0.8-2.8-2.7-2.8h-1.3V1616.6z
				 M1024.9,1627.6h1.7c2,0,2.8-1,2.8-2.8c0-2.1-0.8-3.2-2.8-3.2h-1.7V1627.6z"/>
			<path class="st2" d="M1048.4,1605.6v12l-0.8,5.6v0.2l6.7-17.7h7.6v27.4h-7.1v-12.1l0.9-5.6v-0.1l-6.7,17.8h-7.6v-27.4H1048.4z"/>
			<path class="st2" d="M1069.2,1614.2v-8.7h19.2v21.3h2.2v12h-7.3v-5.8h-10.5v5.8h-7.3v-12h1.5
				C1068.7,1622.6,1069.2,1620.4,1069.2,1614.2z M1076.5,1611.7v4.3c0,4.3-0.5,7.4-2.2,10.8h6.3v-15.1H1076.5z"/>
			<path class="st2" d="M1100.9,1620.3v4.2c0,2.2,0.6,3.6,2.5,3.6s2.5-1.4,2.5-3.6v-1.6h7.3v2c0,6.6-5.2,8.9-9.8,8.9s-9.8-2.4-9.8-9
				v-11.2c0-6.5,5.2-8.8,9.8-8.8s9.8,2.3,9.8,8.9v6.5H1100.9z M1105.9,1615.3v-1c0-2.9-0.6-4-2.5-4c-1.8,0-2.5,1.2-2.5,4v1H1105.9z"
				/>
			<path class="st2" d="M1137.7,1615.3v7.9c0,7.9-4.2,10.6-10,10.6c-5.8,0-10.1-2.7-10.1-10.5v-8c0-7.9,4.2-10.5,10.1-10.5
				C1133.4,1604.8,1137.7,1607.4,1137.7,1615.3z M1125.3,1613.7v11.2c0,1.9,0.9,2.9,2.3,2.9c1.4,0,2.2-1,2.2-2.8v-11.4
				c0-2-0.8-2.9-2.2-2.9C1126.1,1610.9,1125.3,1611.9,1125.3,1613.7z"/>
			<path class="st2" d="M1142.3,1605.6h11.2c4.3,0,7.4,2.4,7.4,6.7c0,3.7-1.5,5.4-4.2,6.4c3.1,1.2,4.7,2.9,4.7,6.8
				c0,3.7-2.1,7.5-7.3,7.5h-11.8V1605.6z M1149.7,1616.6h1.3c1.9,0,2.7-0.9,2.7-2.9c0-2-0.8-2.8-2.7-2.8h-1.3V1616.6z
				 M1149.7,1627.6h1.7c2,0,2.8-1,2.8-2.8c0-2.1-0.8-3.2-2.8-3.2h-1.7V1627.6z"/>
			<path class="st2" d="M1173.2,1605.6v12l-0.8,5.6v0.2l6.7-17.7h7.6v27.4h-7.1v-12.1l0.9-5.6v-0.1l-6.7,17.8h-7.6v-27.4H1173.2z"/>
			<path class="st2" d="M1191.4,1614.5c0-6.9,4.4-9.7,10-9.7c5.6,0,9.1,2.9,9.1,7.8c0,2.7-1.3,5.1-4.4,6.1c3.4,1,4.8,2.8,4.8,6.8
				c0,5.3-3.6,8.3-9.5,8.3c-4.7,0-10.4-1.6-10.4-8.9v-1.4h7.3v1.1c0,2,0.8,3.3,2.4,3.3c1.6,0,2.4-1,2.4-2.9c0-2.7-0.9-3.5-2.9-3.5
				h-0.4v-5h0.4c2,0,2.9-0.9,2.9-2.8c0-1.5-0.7-2.8-2.2-2.8c-1.6,0-2.2,0.9-2.2,3.6H1191.4z"/>
			<path class="st2" d="M1222.8,1605.6v12l-0.8,5.6v0.2l6.7-17.7h7.6v27.4h-7.1v-12.1l0.9-5.6v-0.1l-6.7,17.8h-7.6v-27.4H1222.8z"/>
			<path class="st2" d="M1257.8,1605.6v6.2h-5.4v21.3h-7.8v-21.3h-5.4v-6.2H1257.8z"/>
			<path class="st2" d="M1268.9,1614.3l4.7-8.8h8.7l-7.3,10.8l7.6,16.6h-8l-4.7-10.8l-1.1,1.9v8.9h-7.8v-27.4h7.8V1614.3z"/>
			<path class="st2" d="M1292.2,1605.6l1.9,12.4c0.2,0.9,0.5,6.5,0.7,9.7h0.1c0.3-3.2,0.7-8.3,0.9-9.7l1.9-12.4h7.5l-6.1,29.4
				c-1.1,5.2-3.9,7-8.6,7c-1.8,0-2.7-0.1-3.4-0.3v-5.6c0.3,0.1,0.9,0.1,1.6,0.1c1.2,0,1.8-0.5,1.8-1.6c0-1.7-2.4-12.2-6.2-29.1
				H1292.2z"/>
		</g>
	</g>
	<g class="st0">
		<path class="st2" d="M107.4,268.5h-1.7v-21.4h1.6v1.4h0.1c0.6-1,1.8-1.8,3.2-1.8c4.3,0,4.9,4.5,4.9,7.9c0,4.3-0.5,8.8-4.8,8.8
			c-1.4,0-2.5-0.5-3.3-1.7V268.5z M107.4,254.8c0,3.1,0.2,7.2,3.1,7.2s3.3-3.4,3.3-7.2c0-2.5-0.3-6.6-3.2-6.6
			C107.6,248.2,107.4,252.3,107.4,254.8z"/>
		<path class="st2" d="M127.8,263.1c-0.3,0.2-0.7,0.2-1.1,0.2c-0.9,0-1.4-0.5-1.6-1.6h0c-0.8,1.2-2.1,1.7-3.5,1.7
			c-2.9,0-3.6-1.7-3.6-4.2c0-2.2,0.8-3.6,2.6-4.4l3.4-1.5c0.9-0.4,1.1-1,1.1-2.5c0-1.7-1-2.6-2.4-2.6c-2.3,0-2.3,1.5-2.6,2.9h-1.6
			c0-2.9,1.5-4.4,4.3-4.4c2.9,0,4,1.5,4,4.3v9.8c0,1,0.1,1,1.1,1.1V263.1z M121.8,256c-1.7,0.8-2.2,1.5-2.2,3.2
			c0,1.6,0.5,2.8,2.2,2.8c2.7,0,3.2-2.6,3.2-4.4v-3.1C123.8,255,122.9,255.4,121.8,256z"/>
		<path class="st2" d="M138.9,257.8c0,3-1.1,5.7-4.4,5.7c-4.7,0-4.9-4.9-4.9-8.4c0-3.4,0.4-8.3,4.8-8.3c2.9,0,4.3,2.4,4.3,5.1h-1.7
			c0-1.8-0.9-3.6-2.8-3.6c-2.8,0-3,3.7-3,7.1c0,3.4,0.3,6.7,3.2,6.7c2.3,0,2.5-2.5,2.7-4.2H138.9z"/>
		<path class="st2" d="M150.4,257.8c0,3-1.1,5.7-4.4,5.7c-4.7,0-4.9-4.9-4.9-8.4c0-3.4,0.4-8.3,4.8-8.3c2.9,0,4.3,2.4,4.3,5.1h-1.7
			c0-1.8-0.9-3.6-2.8-3.6c-2.8,0-3,3.7-3,7.1c0,3.4,0.3,6.7,3.2,6.7c2.3,0,2.5-2.5,2.7-4.2H150.4z"/>
		<path class="st2" d="M154.9,254.6l5.2-7.5h2.1l-4.3,5.9l4.4,10h-1.8l-3.8-8.3l-1.7,2.5v5.8h-1.7v-15.9h1.7V254.6z"/>
		<path class="st2" d="M173.8,263.1c-0.3,0.2-0.7,0.2-1.1,0.2c-0.9,0-1.4-0.5-1.6-1.6h0c-0.8,1.2-2.1,1.7-3.5,1.7
			c-2.9,0-3.6-1.7-3.6-4.2c0-2.2,0.8-3.6,2.6-4.4l3.4-1.5c0.9-0.4,1.1-1,1.1-2.5c0-1.7-1-2.6-2.4-2.6c-2.3,0-2.3,1.5-2.6,2.9h-1.6
			c0-2.9,1.5-4.4,4.3-4.4c2.9,0,4,1.5,4,4.3v9.8c0,1,0.1,1,1.1,1.1V263.1z M167.8,256c-1.7,0.8-2.2,1.5-2.2,3.2
			c0,1.6,0.5,2.8,2.2,2.8c2.7,0,3.2-2.6,3.2-4.4v-3.1C169.8,255,168.8,255.4,167.8,256z"/>
		<path class="st2" d="M183.5,247.1v7.5l5.2-7.5h2.1l-4.3,5.9l4.4,10h-1.8l-3.8-8.3l-1.7,2.5v5.8h-1.7v-5.8l-1.7-2.5l-3.8,8.3h-1.8
			l4.4-10l-4.3-5.9h2.1l5.2,7.5v-7.5H183.5z"/>
		<path class="st2" d="M202.5,247.1V263h-1.7v-10.5c0-1.2,0.2-3.2,0.4-4.1h0c-0.2,0.7-0.8,2.1-1.1,3l-4.9,11.5H193v-15.9h1.7v10.7
			c0,1.2-0.2,3.2-0.4,4.1h0c0.3-0.8,0.8-2.1,1.1-3l4.9-11.8H202.5z"/>
		<path class="st2" d="M221.4,247.1V263h-1.7v-14.4H214V263h-1.7v-15.9H221.4z"/>
		<path class="st2" d="M224.4,255.1c0-3.5,0.5-8.3,5-8.3c4.5,0,4.9,4.8,4.9,8.3c0,3.6-0.5,8.4-5,8.4
			C224.8,263.4,224.4,258.7,224.4,255.1z M232.7,255.1c0-2.5-0.3-6.9-3.3-6.9c-3,0-3.3,4.4-3.3,6.9c0,3.1,0.3,6.9,3.2,6.9
			C232.4,262,232.7,258.3,232.7,255.1z"/>
		<path class="st2" d="M238.7,247.1v3.8c0,2.1,0.9,3.1,2.5,3.1c1.3,0,2.2-0.1,3-0.4v-6.5h1.7V263h-1.7v-7.9c-1,0.4-1.7,0.4-3.3,0.4
			c-2.7,0-3.8-1.7-3.8-4.9v-3.5H238.7z"/>
		<path class="st2" d="M250.5,255c0,3.8,0.3,7,3,7c2.4,0,2.6-2.2,2.8-4.1h1.7c0,2.8-1.3,5.6-4.5,5.6c-4.4,0-4.6-5-4.6-8.3
			c0-3.2,0.2-8.4,4.6-8.4c3.7,0,4.6,3.7,4.6,6.7v1.6H250.5z M256.3,253.5c0-2-0.2-5.3-2.9-5.3c-2.6,0-2.9,3.5-2.9,5.3H256.3z"/>
		<path class="st2" d="M263.8,247.1l2.6,9.8c0.3,1,0.8,3.2,1,4.5h0c0.1-1.3,0.6-3,1-4.5l2.7-9.8h2.7V263h-1.7v-9.4
			c0-2,0.1-4.6,0.2-5.8h0c-0.4,1.1-0.8,3.1-4.2,15.3h-1.5c-3.2-12-4-14.5-4.2-15.3h0c0.1,1.5,0.3,3.8,0.3,5.8v9.4H261v-15.9H263.8z"
			/>
		<path class="st2" d="M277.8,247.1L281,260h0.1l3.5-12.9h1.7l-5,18.2c-0.5,2-1.6,3.2-3.5,3.2c-0.9,0-1.2-0.1-1.4-0.1v-1.5
			c0.1,0,0.7,0.1,0.9,0.1c2.3,0,2.4-1.8,2.8-3.9l-4.1-16H277.8z"/>
		<path class="st2" d="M302.7,247.1v1.5h-3.8V263h-1.7v-14.4h-3.8v-1.5H302.7z"/>
		<path class="st2" d="M306.3,253.8h3.2c2.8,0,4.3,1.7,4.3,4.6c0,2.8-1.4,4.6-4.3,4.6h-4.9v-15.9h1.7V253.8z M306.3,261.5h2.9
			c1.7,0,2.9-0.9,2.9-3.2c0-2.2-1.1-3.1-3-3.1h-2.8V261.5z M317.8,263h-1.7v-15.9h1.7V263z"/>
	</g>
	<g class="st0">
		<path class="st2" d="M116,280.1v14.4h1.4v5.7h-1.6V296h-9.5v4.3h-1.6v-5.7h1.2c1.3-2.3,2.1-4.7,2.1-9.9v-4.6H116z M109.7,281.6
			v3.8c0,4.4-0.9,7.1-2,9.2h6.6v-13H109.7z"/>
		<path class="st2" d="M119.3,288.1c0-3.5,0.5-8.3,5-8.3c4.5,0,4.9,4.8,4.9,8.3c0,3.6-0.5,8.4-5,8.4
			C119.8,296.4,119.3,291.7,119.3,288.1z M127.6,288.1c0-2.5-0.3-6.9-3.3-6.9c-3,0-3.3,4.4-3.3,6.9c0,3.1,0.3,6.9,3.2,6.9
			C127.3,295,127.6,291.3,127.6,288.1z"/>
		<path class="st2" d="M141.4,280.1V296h-1.7v-14.4h-4.9v7.4c0,5.9-1.3,7.2-3,7.2c-0.6,0-1,0-1.4-0.1v-1.4c0.3,0.1,0.6,0.1,1,0.1
			c1.1,0,1.7-0.8,1.7-6.4v-8.2H141.4z"/>
		<path class="st2" d="M152.4,280.1v7.5l5.2-7.5h2.1l-4.3,5.9l4.4,10h-1.8l-3.8-8.3l-1.7,2.5v5.8h-1.7v-5.8l-1.7-2.5l-3.8,8.3h-1.8
			l4.4-10l-4.3-5.9h2.1l5.2,7.5v-7.5H152.4z"/>
		<path class="st2" d="M163,288c0,3.8,0.3,7,3,7c2.4,0,2.6-2.2,2.8-4.1h1.7c0,2.8-1.3,5.6-4.5,5.6c-4.4,0-4.6-5-4.6-8.3
			c0-3.2,0.2-8.4,4.6-8.4c3.7,0,4.6,3.7,4.6,6.7v1.6H163z M168.8,286.5c0-2-0.2-5.3-2.9-5.3c-2.6,0-2.9,3.5-2.9,5.3H168.8z"/>
		<path class="st2" d="M175.2,286.8h5.7v-6.7h1.7V296h-1.7v-7.7h-5.7v7.7h-1.7v-15.9h1.7V286.8z"/>
		<path class="st2" d="M201.2,290.8c0,3-1.1,5.7-4.4,5.7c-4.7,0-4.9-4.9-4.9-8.4c0-3.4,0.4-8.3,4.8-8.3c2.8,0,4.3,2.4,4.3,5.1h-1.7
			c0-1.8-0.9-3.6-2.8-3.6c-2.8,0-3,3.7-3,7.1c0,3.4,0.3,6.7,3.2,6.7c2.3,0,2.6-2.5,2.7-4.2H201.2z"/>
		<path class="st2" d="M205.7,286.8h3.2c2.8,0,4.3,1.7,4.3,4.6c0,2.8-1.4,4.6-4.3,4.6H204v-15.9h1.7V286.8z M205.7,294.5h2.9
			c1.7,0,2.9-0.9,2.9-3.2c0-2.2-1.1-3.1-3-3.1h-2.8V294.5z M217.2,296h-1.7v-15.9h1.7V296z"/>
		<path class="st2" d="M228.1,280.1v1.5h-5.7V296h-1.7v-15.9H228.1z"/>
		<path class="st2" d="M231.9,301.5h-1.7v-21.4h1.6v1.4h0.1c0.6-1,1.8-1.8,3.2-1.8c4.3,0,4.9,4.5,4.9,7.9c0,4.3-0.5,8.8-4.8,8.8
			c-1.4,0-2.5-0.5-3.3-1.7V301.5z M231.9,287.8c0,3.1,0.2,7.2,3.1,7.2c2.9,0,3.3-3.4,3.3-7.2c0-2.5-0.3-6.6-3.2-6.6
			C232,281.2,231.9,285.3,231.9,287.8z"/>
		<path class="st2" d="M252.3,296.1c-0.3,0.2-0.7,0.2-1.1,0.2c-0.9,0-1.4-0.5-1.7-1.6h0c-0.8,1.2-2.1,1.7-3.5,1.7
			c-2.9,0-3.6-1.7-3.6-4.2c0-2.2,0.8-3.6,2.6-4.4l3.4-1.5c0.9-0.4,1.1-1,1.1-2.5c0-1.7-1-2.6-2.4-2.6c-2.3,0-2.3,1.5-2.6,2.9h-1.6
			c0-2.9,1.5-4.4,4.3-4.4c2.9,0,4,1.5,4,4.3v9.8c0,1,0.1,1,1.1,1.1V296.1z M246.3,289c-1.7,0.8-2.2,1.5-2.2,3.2
			c0,1.6,0.5,2.8,2.2,2.8c2.7,0,3.2-2.6,3.2-4.4v-3.1C248.2,288,247.3,288.4,246.3,289z"/>
		<path class="st2" d="M262.4,280.1v1.5h-3.8V296h-1.7v-14.4h-3.8v-1.5H262.4z"/>
		<path class="st2" d="M266,286.8h3.2c2.8,0,4.3,1.7,4.3,4.6c0,2.8-1.4,4.6-4.3,4.6h-4.9v-15.9h1.7V286.8z M266,294.5h2.9
			c1.7,0,2.9-0.9,2.9-3.2c0-2.2-1.1-3.1-3-3.1H266V294.5z"/>
		<path class="st2" d="M282.8,280.1h4.2c2.9,0,4.3,1.7,4.3,3.9c0,2-1,3.2-2.3,3.5c1.4,0.5,2.9,1.3,2.9,4.1c0,2.6-1.5,4.4-4,4.4h-5.2
			V280.1z M284.5,286.8h2.4c1.9,0,2.8-0.8,2.8-2.5c0-1.7-0.9-2.7-2.8-2.7h-2.4V286.8z M284.5,294.5h2.9c1.6,0,2.9-0.8,2.9-3
			c0-2.2-1.2-3.3-3.1-3.3h-2.7V294.5z"/>
		<path class="st2" d="M303,294.5h5.1v-14.4h1.7v14.4h5.1v-14.4h1.7V296h-15.3v-15.9h1.7V294.5z"/>
		<path class="st2" d="M319.5,288.1c0-3.5,0.5-8.3,5-8.3c4.5,0,5,4.8,5,8.3c0,3.6-0.5,8.4-5,8.4C320,296.4,319.5,291.7,319.5,288.1z
			 M327.9,288.1c0-2.5-0.3-6.9-3.3-6.9c-3,0-3.3,4.4-3.3,6.9c0,3.1,0.3,6.9,3.2,6.9C327.6,295,327.9,291.3,327.9,288.1z"/>
		<path class="st2" d="M333,280.1l3.3,12.9h0.1l3.5-12.9h1.7l-5,18.2c-0.5,2-1.6,3.2-3.5,3.2c-0.9,0-1.2-0.1-1.4-0.1v-1.5
			c0.1,0,0.7,0.1,0.9,0.1c2.3,0,2.4-1.8,2.8-3.9l-4.1-16H333z"/>
	</g>
</g>
</svg>
