<?xml version="1.0" encoding="utf-8"?>
<!-- Generator: Adobe Illustrator 24.0.1, SVG Export Plug-In . SVG Version: 6.00 Build 0)  -->
<svg version="1.1" id="Layer_1" xmlns="http://www.w3.org/2000/svg" xmlns:xlink="http://www.w3.org/1999/xlink" x="0px" y="0px"
	 viewBox="0 0 360 360" style="enable-background:new 0 0 360 360;" xml:space="preserve">
<style type="text/css">
	.st0{enable-background:new    ;}
	.st1{fill:#1173E2;}
	.st2{fill:#FFFFFF;}
</style>
<g id="Group_54" transform="translate(-1360 -1412)">
	<g transform="matrix(1, 0, 0, 1, 1360, 1412)">
		<g class="st0">
			<path class="st1" d="M147.1,208H24v-44.1l97.6-99.5h86v101.7h30.6V208h-30.6v27h-60.5V208z M147.9,103.7L85.5,167h62.4V103.7z"/>
		</g>
	</g>
	<g class="st0">
		<path class="st2" d="M1502.2,1549.6v27.4h-7.8v-21.3h-4.2v21.3h-7.8v-27.4H1502.2z"/>
		<path class="st2" d="M1515.1,1586.3h-7.8v-36.8h7v3.3c1.6-2.8,4.1-4,6.3-4c4,0,6.8,3.1,6.8,8.6v12.5c0,4.7-3.2,7.8-6.8,7.8
			c-2.1,0-3.8-1-5.6-3.2V1586.3z M1515.1,1558.5v9.9c0,2.2,0.8,3.2,2.3,3.2s2.3-1,2.3-3.2v-9.9c0-2.2-0.8-3.4-2.3-3.4
			S1515.1,1556.3,1515.1,1558.5z"/>
		<path class="st2" d="M1552,1559.3v7.9c0,7.9-4.2,10.6-10,10.6c-5.8,0-10.1-2.7-10.1-10.5v-8c0-7.9,4.2-10.5,10.1-10.5
			C1547.7,1548.8,1552,1551.4,1552,1559.3z M1539.6,1557.7v11.2c0,1.9,0.9,2.9,2.3,2.9c1.4,0,2.2-1,2.2-2.8v-11.4
			c0-2-0.8-2.9-2.2-2.9C1540.4,1554.9,1539.6,1555.9,1539.6,1557.7z"/>
		<path class="st2" d="M1563.7,1549.6v12l-0.8,5.6v0.2l6.7-17.7h7.6v27.4h-7.1v-12.1l0.9-5.6v-0.1l-6.7,17.8h-7.6v-27.4H1563.7z
			 M1562.6,1541.1c0.3,2.3,2.7,2.5,4.5,2.5c2.1,0,3.7-0.3,4.3-2.5h3.3c0,4.4-3.8,6.5-7.8,6.5c-4.5,0-7.4-1.8-7.7-6.5H1562.6z"/>
		<path class="st2" d="M1584.5,1558.2v-8.7h19.2v21.3h2.2v12h-7.3v-5.8H1588v5.8h-7.3v-12h1.5
			C1584,1566.6,1584.5,1564.4,1584.5,1558.2z M1591.8,1555.7v4.3c0,4.3-0.5,7.4-2.2,10.8h6.3v-15.1H1591.8z"/>
		<path class="st2" d="M1616.4,1549.6v12l-0.8,5.6v0.2l6.7-17.7h7.6v27.4h-7.1v-12.1l0.9-5.6v-0.1l-6.7,17.8h-7.6v-27.4H1616.4z"/>
	</g>
	<g class="st0">
		<path class="st2" d="M1482.5,1605.6h11.2c4.3,0,7.4,2.4,7.4,6.7c0,3.7-1.5,5.4-4.2,6.4c3.1,1.2,4.7,2.9,4.7,6.8
			c0,3.7-2.1,7.5-7.3,7.5h-11.8V1605.6z M1489.9,1616.6h1.3c1.9,0,2.7-0.9,2.7-2.9c0-2-0.8-2.8-2.7-2.8h-1.3V1616.6z M1489.9,1627.6
			h1.7c2,0,2.8-1,2.8-2.8c0-2.1-0.8-3.2-2.8-3.2h-1.7V1627.6z"/>
		<path class="st2" d="M1526,1615.3v7.9c0,7.9-4.2,10.6-10,10.6s-10.1-2.7-10.1-10.5v-8c0-7.9,4.2-10.5,10.1-10.5
			C1521.8,1604.8,1526,1607.4,1526,1615.3z M1513.7,1613.7v11.2c0,1.9,0.9,2.9,2.3,2.9c1.4,0,2.2-1,2.2-2.8v-11.4
			c0-2-0.8-2.9-2.2-2.9C1514.4,1610.9,1513.7,1611.9,1513.7,1613.7z"/>
		<path class="st2" d="M1555.5,1612c1.3-1.4,1.7-3.9,1.7-5.3c0-2.3-0.6-3.8-2.9-3.8c-2.1,0-3.2,1.6-3.2,6.1h-8
			c0-6.8,3.3-12.6,11.5-12.6c6.2,0,10.7,3.7,10.7,10c0,4.8-1.7,7.6-4,10.3c-2,2.4-8.2,6.9-8.6,9.7h13.2v6.6h-22.7
			C1543.1,1621.8,1551.7,1616.3,1555.5,1612z"/>
		<path class="st2" d="M1581.8,1617.9v5.7h-13.3v-5.7H1581.8z"/>
		<path class="st2" d="M1593,1605.6v12l-0.8,5.6v0.2l6.7-17.7h7.6v27.4h-7.1v-12.1l0.9-5.6v-0.1l-6.7,17.8h-7.6v-27.4H1593z
			 M1591.9,1597.1c0.3,2.3,2.7,2.5,4.5,2.5c2.1,0,3.7-0.3,4.3-2.5h3.3c0,4.4-3.8,6.5-7.8,6.5c-4.5,0-7.4-1.8-7.7-6.5H1591.9z"/>
		<path class="st2" d="M1641.4,1605.6v6.2h-5.4v21.3h-7.8v-21.3h-5.4v-6.2H1641.4z"/>
		<path class="st2" d="M1651.2,1605.6l1.9,12.4c0.2,0.9,0.5,6.5,0.7,9.7h0.1c0.3-3.2,0.7-8.3,0.9-9.7l1.9-12.4h7.5l-6.1,29.4
			c-1.1,5.2-3.9,7-8.6,7c-1.8,0-2.7-0.1-3.4-0.3v-5.6c0.3,0.1,0.9,0.1,1.6,0.1c1.2,0,1.8-0.5,1.8-1.6c0-1.7-2.4-12.2-6.2-29.1
			H1651.2z"/>
		<path class="st2" d="M1675.2,1642.3h-7.8v-36.8h7v3.3c1.6-2.8,4.1-4,6.3-4c4,0,6.8,3.1,6.8,8.6v12.5c0,4.7-3.2,7.8-6.8,7.8
			c-2.1,0-3.8-1-5.6-3.2V1642.3z M1675.2,1614.5v9.9c0,2.2,0.8,3.2,2.3,3.2s2.3-1,2.3-3.2v-9.9c0-2.2-0.8-3.4-2.3-3.4
			S1675.2,1612.3,1675.2,1614.5z"/>
	</g>
	<g class="st0">
		<path class="st2" d="M1491.2,1664.1v15.9h-1.7v-10.5c0-1.2,0.2-3.2,0.4-4.1h0c-0.2,0.7-0.8,2.1-1.1,3l-4.9,11.5h-2.1v-15.9h1.7
			v10.7c0,1.2-0.2,3.2-0.4,4.1h0c0.3-0.8,0.8-2.1,1.1-3l4.9-11.8H1491.2z"/>
		<path class="st2" d="M1510.1,1664.1v15.9h-1.7v-14.4h-5.7v14.4h-1.7v-15.9H1510.1z"/>
		<path class="st2" d="M1513.1,1672.1c0-3.5,0.5-8.3,5-8.3c4.5,0,4.9,4.8,4.9,8.3c0,3.6-0.5,8.4-5,8.4
			C1513.6,1680.4,1513.1,1675.7,1513.1,1672.1z M1521.4,1672.1c0-2.5-0.3-6.9-3.3-6.9c-3,0-3.3,4.4-3.3,6.9c0,3.1,0.3,6.9,3.2,6.9
			C1521.1,1679,1521.4,1675.3,1521.4,1672.1z"/>
		<path class="st2" d="M1535.2,1664.1v15.9h-1.7v-14.4h-4.9v7.4c0,5.9-1.3,7.2-3,7.2c-0.6,0-1,0-1.4-0.1v-1.4c0.3,0.1,0.6,0.1,1,0.1
			c1.1,0,1.7-0.8,1.7-6.4v-8.2H1535.2z"/>
		<path class="st2" d="M1539.2,1664.1l3.3,12.9h0.1l3.4-12.9h1.7l-5,18.2c-0.5,2-1.6,3.2-3.5,3.2c-0.9,0-1.2-0.1-1.4-0.1v-1.5
			c0.2,0,0.7,0.1,0.9,0.1c2.3,0,2.4-1.8,2.9-3.9l-4.1-16H1539.2z"/>
		<path class="st2" d="M1551.3,1664.1v3.8c0,2.1,0.9,3.1,2.5,3.1c1.3,0,2.2-0.1,3-0.4v-6.5h1.7v15.9h-1.7v-7.9
			c-1.1,0.4-1.7,0.4-3.3,0.4c-2.7,0-3.8-1.7-3.8-4.9v-3.5H1551.3z"/>
		<path class="st2" d="M1571.4,1664.1v15.9h-1.7v-10.5c0-1.2,0.2-3.2,0.4-4.1h0c-0.2,0.7-0.8,2.1-1.1,3l-4.9,11.5h-2.1v-15.9h1.7
			v10.7c0,1.2-0.2,3.2-0.4,4.1h0c0.3-0.8,0.8-2.1,1.1-3l4.9-11.8H1571.4z"/>
		<path class="st2" d="M1583,1678.5h5.1v-14.4h1.7v14.4h5.1v-14.4h1.7v15.9h-15.3v-15.9h1.7V1678.5z"/>
		<path class="st2" d="M1609.4,1680.1c-0.3,0.2-0.7,0.2-1.1,0.2c-0.9,0-1.4-0.5-1.6-1.6h0c-0.8,1.2-2.1,1.7-3.5,1.7
			c-2.9,0-3.6-1.7-3.6-4.2c0-2.2,0.8-3.6,2.6-4.4l3.4-1.5c0.9-0.4,1.1-1,1.1-2.5c0-1.7-1-2.6-2.4-2.6c-2.3,0-2.3,1.5-2.6,2.9h-1.6
			c0-2.9,1.5-4.4,4.3-4.4c2.9,0,4,1.5,4,4.3v9.8c0,1,0.1,1,1.1,1.1V1680.1z M1603.4,1673c-1.7,0.8-2.2,1.5-2.2,3.2
			c0,1.6,0.5,2.8,2.2,2.8c2.7,0,3.2-2.6,3.2-4.4v-3.1C1605.4,1672,1604.5,1672.4,1603.4,1673z"/>
		<path class="st2" d="M1613.4,1670.8h5.7v-6.7h1.7v15.9h-1.7v-7.7h-5.7v7.7h-1.7v-15.9h1.7V1670.8z"/>
		<path class="st2" d="M1633,1674.8c0,3-1.1,5.7-4.4,5.7c-4.7,0-4.9-4.9-4.9-8.4c0-3.4,0.4-8.3,4.8-8.3c2.8,0,4.3,2.4,4.3,5.1h-1.6
			c0-1.8-0.9-3.6-2.8-3.6c-2.8,0-3,3.7-3,7.1c0,3.4,0.3,6.7,3.2,6.7c2.3,0,2.5-2.5,2.7-4.2H1633z"/>
		<path class="st2" d="M1651,1674.8c0,3-1.1,5.7-4.4,5.7c-4.7,0-4.9-4.9-4.9-8.4c0-3.4,0.4-8.3,4.8-8.3c2.8,0,4.3,2.4,4.3,5.1h-1.6
			c0-1.8-0.9-3.6-2.8-3.6c-2.8,0-3,3.7-3,7.1c0,3.4,0.3,6.7,3.2,6.7c2.3,0,2.5-2.5,2.7-4.2H1651z"/>
		<path class="st2" d="M1661.6,1664.1v1.5h-3.8v14.4h-1.7v-14.4h-3.8v-1.5H1661.6z"/>
		<path class="st2" d="M1672.9,1680.1c-0.3,0.2-0.7,0.2-1.1,0.2c-0.9,0-1.4-0.5-1.6-1.6h0c-0.8,1.2-2.1,1.7-3.5,1.7
			c-2.9,0-3.6-1.7-3.6-4.2c0-2.2,0.8-3.6,2.6-4.4l3.4-1.5c0.9-0.4,1.1-1,1.1-2.5c0-1.7-1-2.6-2.4-2.6c-2.3,0-2.3,1.5-2.6,2.9h-1.6
			c0-2.9,1.5-4.4,4.3-4.4c2.9,0,4,1.5,4,4.3v9.8c0,1,0.1,1,1.1,1.1V1680.1z M1666.9,1673c-1.7,0.8-2.2,1.5-2.2,3.2
			c0,1.6,0.5,2.8,2.2,2.8c2.7,0,3.2-2.6,3.2-4.4v-3.1C1668.9,1672,1667.9,1672.4,1666.9,1673z"/>
		<path class="st2" d="M1683,1664.1v1.5h-3.8v14.4h-1.7v-14.4h-3.8v-1.5H1683z"/>
		<path class="st2" d="M1686.6,1670.8h3.2c2.8,0,4.3,1.7,4.3,4.6c0,2.8-1.4,4.6-4.3,4.6h-4.9v-15.9h1.7V1670.8z M1686.6,1678.5h2.9
			c1.7,0,2.9-0.9,2.9-3.2c0-2.2-1.1-3.1-3-3.1h-2.8V1678.5z"/>
	</g>
	<g class="st0">
		<path class="st2" d="M1482.2,1697.1l3.3,12.9h0.1l3.4-12.9h1.7l-5,18.2c-0.5,2-1.6,3.2-3.5,3.2c-0.9,0-1.2-0.1-1.4-0.1v-1.5
			c0.2,0,0.7,0.1,0.9,0.1c2.3,0,2.4-1.8,2.8-3.9l-4.1-16H1482.2z"/>
		<path class="st2" d="M1494.4,1697.1v3.8c0,2.1,0.9,3.1,2.5,3.1c1.3,0,2.2-0.1,3-0.4v-6.5h1.7v15.9h-1.7v-7.9
			c-1,0.4-1.7,0.4-3.3,0.4c-2.7,0-3.8-1.7-3.8-4.9v-3.5H1494.4z"/>
		<path class="st2" d="M1514.3,1713.1c-0.3,0.2-0.7,0.2-1.1,0.2c-0.9,0-1.4-0.5-1.6-1.6h0c-0.8,1.2-2.1,1.7-3.5,1.7
			c-2.9,0-3.6-1.7-3.6-4.2c0-2.2,0.8-3.6,2.6-4.4l3.4-1.5c0.9-0.4,1.1-1,1.1-2.5c0-1.7-1-2.6-2.4-2.6c-2.3,0-2.3,1.5-2.6,2.9h-1.6
			c0-2.9,1.5-4.4,4.3-4.4c2.9,0,4,1.5,4,4.3v9.8c0,1,0.1,1,1.1,1.1V1713.1z M1508.3,1706c-1.7,0.8-2.2,1.5-2.2,3.2
			c0,1.6,0.5,2.8,2.2,2.8c2.7,0,3.2-2.6,3.2-4.4v-3.1C1510.3,1705,1509.4,1705.4,1508.3,1706z"/>
		<path class="st2" d="M1525.4,1707.8c0,3-1.1,5.7-4.4,5.7c-4.7,0-4.9-4.9-4.9-8.4c0-3.4,0.4-8.3,4.8-8.3c2.8,0,4.3,2.4,4.3,5.1
			h-1.6c0-1.8-0.9-3.6-2.8-3.6c-2.8,0-3,3.7-3,7.1c0,3.4,0.3,6.7,3.2,6.7c2.3,0,2.5-2.5,2.7-4.2H1525.4z"/>
		<path class="st2" d="M1536,1697.1v1.5h-3.8v14.4h-1.7v-14.4h-3.8v-1.5H1536z"/>
		<path class="st2" d="M1539.6,1703.8h5.7v-6.7h1.7v15.9h-1.7v-7.7h-5.7v7.7h-1.7v-15.9h1.7V1703.8z"/>
		<path class="st2" d="M1560,1697.1v15.9h-1.7v-10.5c0-1.2,0.2-3.2,0.4-4.1h0c-0.2,0.7-0.8,2.1-1.1,3l-4.9,11.5h-2.1v-15.9h1.7v10.7
			c0,1.2-0.2,3.2-0.4,4.1h0c0.3-0.8,0.8-2.1,1.1-3l4.9-11.8H1560z"/>
		<path class="st2" d="M1565.1,1704.6l5.2-7.5h2.1l-4.3,5.9l4.4,10h-1.8l-3.8-8.3l-1.7,2.5v5.8h-1.7v-15.9h1.7V1704.6z"/>
		<path class="st2" d="M1574.1,1705.1c0-3.5,0.5-8.3,5-8.3c4.5,0,5,4.8,5,8.3c0,3.6-0.5,8.4-5,8.4
			C1574.6,1713.4,1574.1,1708.7,1574.1,1705.1z M1582.4,1705.1c0-2.5-0.3-6.9-3.3-6.9c-3,0-3.3,4.4-3.3,6.9c0,3.1,0.3,6.9,3.2,6.9
			C1582.1,1712,1582.4,1708.3,1582.4,1705.1z"/>
		<path class="st2" d="M1589.7,1697.1l2.6,9.8c0.3,1,0.8,3.2,1,4.5h0c0.1-1.3,0.6-3,1-4.5l2.7-9.8h2.7v15.9h-1.7v-9.4
			c0-2,0.1-4.6,0.2-5.8h0c-0.4,1.1-0.8,3.1-4.2,15.3h-1.5c-3.2-12-4-14.5-4.2-15.3h0c0.2,1.5,0.3,3.8,0.3,5.8v9.4h-1.7v-15.9H1589.7
			z"/>
		<path class="st2" d="M1617.4,1697.1v1.5h-3.8v14.4h-1.7v-14.4h-3.8v-1.5H1617.4z"/>
		<path class="st2" d="M1620.5,1705c0,3.8,0.3,7,3,7c2.4,0,2.6-2.2,2.8-4.1h1.7c0,2.8-1.3,5.6-4.5,5.6c-4.4,0-4.6-5-4.6-8.3
			c0-3.2,0.2-8.4,4.6-8.4c3.7,0,4.6,3.7,4.6,6.7v1.6H1620.5z M1626.3,1703.5c0-2-0.2-5.3-2.9-5.3c-2.6,0-2.9,3.5-2.9,5.3H1626.3z"/>
		<path class="st2" d="M1640.7,1697.1v15.9h-1.7v-14.4h-4.9v7.4c0,5.9-1.3,7.2-3,7.2c-0.6,0-1,0-1.3-0.1v-1.4c0.3,0.1,0.6,0.1,1,0.1
			c1.1,0,1.7-0.8,1.7-6.4v-8.2H1640.7z"/>
		<path class="st2" d="M1645.4,1705c0,3.8,0.3,7,3,7c2.4,0,2.6-2.2,2.8-4.1h1.7c0,2.8-1.3,5.6-4.5,5.6c-4.4,0-4.6-5-4.6-8.3
			c0-3.2,0.2-8.4,4.6-8.4c3.7,0,4.6,3.7,4.6,6.7v1.6H1645.4z M1651.1,1703.5c0-2-0.2-5.3-2.9-5.3c-2.6,0-2.9,3.5-2.9,5.3H1651.1z"/>
		<path class="st2" d="M1665.4,1697.1v15.9h-1.7v-10.5c0-1.2,0.2-3.2,0.4-4.1h0c-0.2,0.7-0.8,2.1-1.1,3l-4.9,11.5h-2.1v-15.9h1.7
			v10.7c0,1.2-0.2,3.2-0.4,4.1h0c0.3-0.8,0.8-2.1,1.1-3l4.9-11.8H1665.4z"/>
		<path class="st2" d="M1676.3,1697.1v1.5h-5.7v14.4h-1.7v-15.9H1676.3z"/>
		<path class="st2" d="M1680,1718.5h-1.7v-21.4h1.6v1.4h0.1c0.6-1,1.8-1.8,3.2-1.8c4.3,0,4.9,4.5,4.9,7.9c0,4.3-0.5,8.8-4.8,8.8
			c-1.4,0-2.5-0.5-3.3-1.7V1718.5z M1680,1704.8c0,3.1,0.2,7.2,3.1,7.2s3.3-3.4,3.3-7.2c0-2.5-0.3-6.6-3.2-6.6
			C1680.2,1698.2,1680,1702.3,1680,1704.8z"/>
		<path class="st2" d="M1692.8,1703.8h3.2c2.8,0,4.3,1.7,4.3,4.6c0,2.8-1.4,4.6-4.3,4.6h-4.9v-15.9h1.7V1703.8z M1692.8,1711.5h2.9
			c1.7,0,2.9-0.9,2.9-3.2c0-2.2-1.1-3.1-3-3.1h-2.8V1711.5z M1704.3,1713h-1.7v-15.9h1.7V1713z"/>
	</g>
</g>
</svg>
