<?xml version="1.0" encoding="utf-8"?>
<!-- Generator: Adobe Illustrator 24.0.1, SVG Export Plug-In . SVG Version: 6.00 Build 0)  -->
<svg version="1.1" id="Layer_1" xmlns="http://www.w3.org/2000/svg" xmlns:xlink="http://www.w3.org/1999/xlink" x="0px" y="0px"
	 viewBox="0 0 349 360" style="enable-background:new 0 0 349 360;" xml:space="preserve">
<style type="text/css">
	.st0{enable-background:new    ;}
	.st1{fill:#1173E2;}
	.st2{fill:#FFFFFF;}
</style>
<g id="Group_56" transform="translate(-587 -1412)">
	<g id="Group_52" transform="translate(48)">
		<g transform="matrix(1, 0, 0, 1, 539, 1412)">
			<g class="st0">
				<path class="st1" d="M105.7,139.6c38.3-9.2,59.5-9.2,59.5-22.7c0-8.9-9.6-13.7-28.9-13.7c-25.3,0-37.4,7-37.4,23.4v0.5h-73
					C27.9,82.2,62.8,60,131,60c70.1,0,105.3,19,105.3,55.9c0,29.6-17.8,43.6-57.6,52.3c-41.2,9.2-71.3,10.4-85.3,23.4h139.3V235
					h-213C22.3,178.8,47.4,153.3,105.7,139.6z"/>
			</g>
		</g>
		<g class="st0">
			<path class="st2" d="M650.2,1558.5c0-6.9,4.4-9.7,10-9.7s9.1,2.9,9.1,7.8c0,2.7-1.3,5.1-4.4,6.1c3.4,1,4.8,2.8,4.8,6.8
				c0,5.3-3.6,8.3-9.5,8.3c-4.7,0-10.4-1.6-10.4-8.9v-1.4h7.3v1.1c0,2,0.8,3.3,2.4,3.3c1.6,0,2.4-1,2.4-2.9c0-2.7-0.9-3.5-2.9-3.5
				h-0.4v-5h0.4c2,0,2.9-0.9,2.9-2.8c0-1.5-0.7-2.8-2.2-2.8c-1.6,0-2.2,0.9-2.2,3.6H650.2z"/>
			<path class="st2" d="M674.4,1558.5c0-5.7,2.9-9.7,9.9-9.7s10.1,2.8,10.1,7.9v15.7c0,2.5,0.1,3.5,0.6,4.6h-7.4l-0.5-3.5
				c-1.1,2.2-2.5,4.2-6.4,4.2c-4.2,0-6.7-2-6.7-7.4c0-4.1,1.7-6.4,5-8.1l5.3-2.7c1.7-0.9,2.3-1.4,2.3-3.1c0-1.1-0.6-2.2-2.4-2.2
				c-1.7,0-2.5,1.2-2.5,3.3v1H674.4z M683.2,1565.7c-1.2,0.7-1.5,1.9-1.5,3.5c0,1.9,0.6,2.7,2.1,2.7c1.8,0,2.8-1.3,2.8-4.1v-4.3
				C686.4,1563.7,684.4,1565,683.2,1565.7z"/>
			<path class="st2" d="M719.1,1549.6v27.4h-7.8v-21.3h-4.2v21.3h-7.8v-27.4H719.1z"/>
			<path class="st2" d="M743.9,1559.3v7.9c0,7.9-4.2,10.6-10,10.6s-10.1-2.7-10.1-10.5v-8c0-7.9,4.2-10.5,10.1-10.5
				C739.7,1548.8,743.9,1551.4,743.9,1559.3z M731.6,1557.7v11.2c0,1.9,0.9,2.9,2.3,2.9c1.4,0,2.2-1,2.2-2.8v-11.4
				c0-2-0.8-2.9-2.2-2.9C732.4,1554.9,731.6,1555.9,731.6,1557.7z"/>
			<path class="st2" d="M770.2,1549.6v27.4h-7.8v-21.3h-4.4v8.4c0,10.6-2.5,13.4-7.5,13.4c-1,0-2.5-0.2-3.9-0.6v-5.5
				c0.5,0.1,0.9,0.2,1.3,0.2c2.4,0,2.6-2.2,2.6-10.8v-11.3H770.2z"/>
			<path class="st2" d="M787.2,1560.1v-10.5h7.8v27.4h-7.8v-11.1H783v11.1h-7.8v-27.4h7.8v10.5H787.2z"/>
			<path class="st2" d="M807.2,1549.6v12l-0.8,5.6v0.2l6.7-17.7h7.6v27.4h-7.1v-12.1l0.9-5.6v-0.1l-6.7,17.8h-7.6v-27.4H807.2z"/>
		</g>
		<g class="st0">
			<path class="st2" d="M650.4,1614.5c0-5.7,2.9-9.7,9.9-9.7s10.1,2.8,10.1,7.9v15.7c0,2.5,0.1,3.5,0.6,4.6h-7.4l-0.5-3.5
				c-1.1,2.2-2.5,4.2-6.4,4.2c-4.2,0-6.7-2-6.7-7.4c0-4.1,1.7-6.4,5-8.1l5.3-2.7c1.7-0.9,2.3-1.4,2.3-3.1c0-1.1-0.6-2.2-2.4-2.2
				c-1.7,0-2.5,1.2-2.5,3.3v1H650.4z M659.3,1621.7c-1.2,0.7-1.5,1.9-1.5,3.5c0,1.9,0.6,2.7,2.1,2.7c1.8,0,2.8-1.3,2.8-4.1v-4.3
				C662.5,1619.7,660.4,1621,659.3,1621.7z"/>
			<path class="st2" d="M687.5,1616.1v-10.5h7.8v27.4h-7.8v-11.1h-4.2v11.1h-7.8v-27.4h7.8v10.5H687.5z"/>
			<path class="st2" d="M708.1,1614.3l4.7-8.8h8.7l-7.3,10.8l7.6,16.6h-8l-4.7-10.8l-1.1,1.9v8.9h-7.8v-27.4h7.8V1614.3z"/>
			<path class="st2" d="M731.9,1620.3v4.2c0,2.2,0.6,3.6,2.5,3.6s2.5-1.4,2.5-3.6v-1.6h7.3v2c0,6.6-5.2,8.9-9.8,8.9s-9.8-2.4-9.8-9
				v-11.2c0-6.5,5.2-8.8,9.8-8.8s9.8,2.3,9.8,8.9v6.5H731.9z M736.9,1615.3v-1c0-2.9-0.6-4-2.5-4c-1.8,0-2.5,1.2-2.5,4v1H736.9z"/>
			<path class="st2" d="M765.4,1605.6v6.2H760v21.3h-7.8v-21.3h-5.4v-6.2H765.4z"/>
			<path class="st2" d="M775.1,1605.6l1.9,12.4c0.2,0.9,0.5,6.5,0.7,9.7h0.1c0.3-3.2,0.7-8.3,0.9-9.7l1.9-12.4h7.5L782,1635
				c-1.1,5.2-3.9,7-8.6,7c-1.8,0-2.7-0.1-3.4-0.3v-5.6c0.3,0.1,0.9,0.1,1.6,0.1c1.2,0,1.8-0.5,1.8-1.6c0-1.7-2.4-12.2-6.2-29.1
				H775.1z"/>
		</g>
	</g>
	<g class="st0">
		<path class="st2" d="M699.2,1664.1v3.8c0,2.1,0.9,3.1,2.5,3.1c1.3,0,2.2-0.1,3-0.4v-6.5h1.7v15.9h-1.7v-7.9
			c-1,0.4-1.7,0.4-3.3,0.4c-2.7,0-3.8-1.7-3.8-4.9v-3.5H699.2z"/>
		<path class="st2" d="M717.6,1664.1v1.5h-3.8v14.4h-1.7v-14.4h-3.8v-1.5H717.6z"/>
		<path class="st2" d="M719,1672.1c0-3.5,0.5-8.3,5-8.3c4.5,0,4.9,4.8,4.9,8.3c0,3.6-0.5,8.4-5,8.4
			C719.5,1680.4,719,1675.7,719,1672.1z M727.3,1672.1c0-2.5-0.3-6.9-3.3-6.9c-3,0-3.3,4.4-3.3,6.9c0,3.1,0.3,6.9,3.2,6.9
			C727,1679,727.3,1675.3,727.3,1672.1z"/>
		<path class="st2" d="M733,1666.8c0.5-1.4,1.9-2.6,3.4-2.6c3.3,0,5,2,5,8.1c0,5.7-1.7,8.1-5,8.1c-3.3,0-5-2.2-5-9.1
			c0-8.5,1.7-10.4,5.3-11.5c1.9-0.5,2.3-0.8,2.6-1.5h1.4c-0.5,1.6-1.3,2.1-3.7,2.8C734.8,1661.9,733.4,1663,733,1666.8L733,1666.8z
			 M739.7,1672.3c0-5.2-1.3-6.6-3.4-6.6c-2,0-3.3,2.4-3.3,6.6c0,5.3,1.3,6.7,3.2,6.7C738.3,1679,739.7,1677.6,739.7,1672.3z"/>
		<path class="st2" d="M746.1,1670.8h3.2c2.8,0,4.3,1.7,4.3,4.6c0,2.8-1.4,4.6-4.3,4.6h-4.9v-15.9h1.7V1670.8z M746.1,1678.5h2.9
			c1.7,0,2.9-0.9,2.9-3.2c0-2.2-1.1-3.1-3-3.1h-2.8V1678.5z M757.6,1680h-1.7v-15.9h1.7V1680z"/>
		<path class="st2" d="M770.2,1664.1l2.6,9.8c0.3,1,0.8,3.2,1,4.5h0c0.1-1.3,0.6-3,1-4.5l2.7-9.8h2.7v15.9h-1.7v-9.4
			c0-2,0.1-4.6,0.2-5.8h0c-0.4,1.1-0.8,3.1-4.2,15.3h-1.5c-3.2-12-4-14.5-4.2-15.3h0c0.2,1.5,0.3,3.8,0.3,5.8v9.4h-1.7v-15.9H770.2z
			"/>
		<path class="st2" d="M785.4,1670.8h3.2c2.8,0,4.3,1.7,4.3,4.6c0,2.8-1.4,4.6-4.3,4.6h-4.9v-15.9h1.7V1670.8z M785.4,1678.5h2.9
			c1.7,0,2.9-0.9,2.9-3.2c0-2.2-1.1-3.1-3-3.1h-2.8V1678.5z M796.9,1680h-1.7v-15.9h1.7V1680z"/>
		<path class="st2" d="M809.5,1664.1l2.6,9.8c0.3,1,0.8,3.2,1,4.5h0c0.1-1.3,0.6-3,1-4.5l2.7-9.8h2.7v15.9h-1.7v-9.4
			c0-2,0.1-4.6,0.2-5.8h0c-0.4,1.1-0.8,3.1-4.2,15.3h-1.5c-3.2-12-4-14.5-4.2-15.3h0c0.2,1.5,0.3,3.8,0.3,5.8v9.4h-1.7v-15.9H809.5z
			"/>
		<path class="st2" d="M822.4,1672.1c0-3.5,0.5-8.3,5-8.3c4.5,0,4.9,4.8,4.9,8.3c0,3.6-0.5,8.4-5,8.4
			C822.9,1680.4,822.4,1675.7,822.4,1672.1z M830.8,1672.1c0-2.5-0.3-6.9-3.3-6.9c-3,0-3.3,4.4-3.3,6.9c0,3.1,0.3,6.9,3.2,6.9
			C830.5,1679,830.8,1675.3,830.8,1672.1z"/>
		<path class="st2" d="M842.8,1664.1v1.5h-5.7v14.4h-1.7v-15.9H842.8z"/>
		<path class="st2" d="M853.8,1664.1v15.9h-1.7v-14.4h-4.9v7.4c0,5.9-1.3,7.2-3,7.2c-0.6,0-1,0-1.4-0.1v-1.4c0.3,0.1,0.6,0.1,1,0.1
			c1.1,0,1.7-0.8,1.7-6.4v-8.2H853.8z"/>
		<path class="st2" d="M866.8,1664.1v15.9h-1.7v-10.5c0-1.2,0.2-3.2,0.4-4.1h0c-0.2,0.7-0.7,2.1-1.1,3l-4.9,11.5h-2.1v-15.9h1.7
			v10.7c0,1.2-0.2,3.2-0.4,4.1h0c0.3-0.8,0.8-2.1,1.1-3l4.9-11.8H866.8z"/>
	</g>
	<g class="st0">
		<path class="st2" d="M706.5,1707.8c0,3-1.1,5.7-4.4,5.7c-4.7,0-4.9-4.9-4.9-8.4c0-3.4,0.4-8.3,4.8-8.3c2.8,0,4.3,2.4,4.3,5.1h-1.6
			c0-1.8-0.9-3.6-2.8-3.6c-2.8,0-3,3.7-3,7.1c0,3.4,0.3,6.7,3.2,6.7c2.3,0,2.5-2.5,2.7-4.2H706.5z"/>
		<path class="st2" d="M709.3,1697.1h4.2c2.9,0,4.3,1.7,4.3,3.9c0,2-1,3.2-2.3,3.5c1.4,0.5,2.9,1.3,2.9,4.1c0,2.6-1.5,4.4-4,4.4
			h-5.2V1697.1z M711,1703.8h2.4c1.9,0,2.8-0.8,2.8-2.5c0-1.7-0.9-2.7-2.8-2.7H711V1703.8z M711,1711.5h2.9c1.6,0,2.8-0.8,2.8-3
			c0-2.2-1.2-3.3-3.1-3.3H711V1711.5z"/>
		<path class="st2" d="M725.8,1706.3l-3.6,6.7h-2l3.7-6.8c-1.8-0.4-3.1-1.9-3.1-4.4c0-2.8,1.4-4.6,4.3-4.6h4.9v15.9h-1.7v-6.7H725.8
			z M728.3,1698.6h-2.9c-1.7,0-2.9,0.9-2.9,3.2c0,2.2,1.1,3.1,3,3.1h2.8V1698.6z"/>
		<path class="st2" d="M736.3,1703.8h1c1.7,0,2.9-1,2.9-2.9c0-1.7-0.9-2.7-2.6-2.7c-1.4,0-2.6,1-2.8,3h-1.6c0.1-2.5,1.7-4.4,4.4-4.4
			c2.6,0,4.3,1.6,4.3,3.9c0,2.4-1.3,3.5-2.5,3.8c1.5,0.4,3.1,1.7,3.1,4.1c0,3.2-2,4.8-4.7,4.8c-3.4,0-4.7-1.9-4.8-4.7h1.6
			c0.1,2.3,1.1,3.2,3,3.2c1.6,0,3.2-1,3.2-3.4c0-1.9-1.4-3.3-3.6-3.3h-0.8V1703.8z"/>
		<path class="st2" d="M754.7,1713.1c-0.3,0.2-0.7,0.2-1.1,0.2c-0.9,0-1.4-0.5-1.6-1.6h0c-0.8,1.2-2.1,1.7-3.5,1.7
			c-2.9,0-3.6-1.7-3.6-4.2c0-2.2,0.8-3.6,2.6-4.4l3.4-1.5c0.9-0.4,1.1-1,1.1-2.5c0-1.7-1-2.6-2.4-2.6c-2.3,0-2.3,1.5-2.6,2.9h-1.6
			c0-2.9,1.5-4.4,4.3-4.4c2.9,0,4,1.5,4,4.3v9.8c0,1,0.1,1,1.1,1.1V1713.1z M748.7,1706c-1.7,0.8-2.2,1.5-2.2,3.2
			c0,1.6,0.5,2.8,2.2,2.8c2.7,0,3.2-2.6,3.2-4.4v-3.1C750.7,1705,749.8,1705.4,748.7,1706z"/>
		<path class="st2" d="M764.8,1697.1v1.5H761v14.4h-1.7v-14.4h-3.8v-1.5H764.8z"/>
		<path class="st2" d="M768.4,1703.8h3.2c2.8,0,4.3,1.7,4.3,4.6c0,2.8-1.4,4.6-4.3,4.6h-4.9v-15.9h1.7V1703.8z M768.4,1711.5h2.9
			c1.7,0,2.9-0.9,2.9-3.2c0-2.2-1.1-3.1-3-3.1h-2.8V1711.5z"/>
		<path class="st2" d="M787.6,1707.8c0,3-1.1,5.7-4.4,5.7c-4.7,0-4.9-4.9-4.9-8.4c0-3.4,0.4-8.3,4.8-8.3c2.8,0,4.3,2.4,4.3,5.1h-1.6
			c0-1.8-0.9-3.6-2.8-3.6c-2.8,0-3,3.7-3,7.1c0,3.4,0.3,6.7,3.2,6.7c2.3,0,2.5-2.5,2.7-4.2H787.6z"/>
		<path class="st2" d="M794.8,1706.3l-3.6,6.7h-2l3.7-6.8c-1.8-0.4-3.1-1.9-3.1-4.4c0-2.8,1.4-4.6,4.3-4.6h4.9v15.9h-1.7v-6.7H794.8
			z M797.3,1698.6h-2.9c-1.7,0-2.9,0.9-2.9,3.2c0,2.2,1.1,3.1,3,3.1h2.8V1698.6z"/>
		<path class="st2" d="M817.6,1707.8c0,3-1.1,5.7-4.4,5.7c-4.7,0-4.9-4.9-4.9-8.4c0-3.4,0.4-8.3,4.8-8.3c2.8,0,4.3,2.4,4.3,5.1h-1.6
			c0-1.8-0.9-3.6-2.8-3.6c-2.8,0-3,3.7-3,7.1c0,3.4,0.3,6.7,3.2,6.7c2.3,0,2.5-2.5,2.7-4.2H817.6z"/>
		<path class="st2" d="M834.6,1697.1v1.5h-3.8v14.4h-1.7v-14.4h-3.8v-1.5H834.6z"/>
		<path class="st2" d="M836,1705.1c0-3.5,0.5-8.3,5-8.3c4.5,0,5,4.8,5,8.3c0,3.6-0.5,8.4-5,8.4C836.5,1713.4,836,1708.7,836,1705.1z
			 M844.3,1705.1c0-2.5-0.3-6.9-3.3-6.9c-3,0-3.3,4.4-3.3,6.9c0,3.1,0.3,6.9,3.2,6.9C844.1,1712,844.3,1708.3,844.3,1705.1z"/>
		<path class="st2" d="M850,1699.8c0.5-1.4,1.9-2.6,3.4-2.6c3.3,0,5,2,5,8.1c0,5.7-1.7,8.1-5,8.1c-3.3,0-4.9-2.2-4.9-9.1
			c0-8.5,1.7-10.4,5.3-11.5c1.9-0.5,2.3-0.8,2.6-1.5h1.4c-0.5,1.6-1.3,2.1-3.7,2.8C851.8,1694.9,850.4,1696,850,1699.8L850,1699.8z
			 M856.7,1705.3c0-5.2-1.3-6.6-3.4-6.6c-2,0-3.3,2.4-3.3,6.6c0,5.3,1.3,6.7,3.2,6.7C855.3,1712,856.7,1710.6,856.7,1705.3z"/>
		<path class="st2" d="M860.9,1705.1c0-3.5,0.5-8.3,5-8.3c4.5,0,4.9,4.8,4.9,8.3c0,3.6-0.5,8.4-5,8.4
			C861.4,1713.4,860.9,1708.7,860.9,1705.1z M869.2,1705.1c0-2.5-0.3-6.9-3.3-6.9c-3,0-3.3,4.4-3.3,6.9c0,3.1,0.3,6.9,3.2,6.9
			C868.9,1712,869.2,1708.3,869.2,1705.1z"/>
		<path class="st2" d="M883.3,1697.1v15.9h-1.7v-10.5c0-1.2,0.2-3.2,0.4-4.1h0c-0.2,0.7-0.7,2.1-1.1,3l-4.9,11.5h-2.1v-15.9h1.7
			v10.7c0,1.2-0.2,3.2-0.4,4.1h0c0.3-0.8,0.8-2.1,1.1-3l4.9-11.8H883.3z M876.1,1692.3c0.2,1.4,1.2,2.1,2.5,2.1s2.2-0.7,2.5-2.1h0.9
			c-0.2,2.2-1.6,3.3-3.5,3.3c-1.9,0-3.1-1.3-3.3-3.3H876.1z"/>
	</g>
</g>
</svg>
