<?xml version="1.0" encoding="utf-8"?>
<!-- Generator: Adobe Illustrator 24.0.1, SVG Export Plug-In . SVG Version: 6.00 Build 0)  -->
<svg version="1.1" id="Layer_1" xmlns="http://www.w3.org/2000/svg" xmlns:xlink="http://www.w3.org/1999/xlink" x="0px" y="0px"
	 viewBox="0 0 399 360" style="enable-background:new 0 0 399 360;" xml:space="preserve">
<style type="text/css">
	.st0{enable-background:new    ;}
	.st1{fill:#1173E2;}
	.st2{fill:#FFFFFF;}
</style>
<g id="Group_55" transform="translate(-106 -1412)">
	<g id="Group_51">
		<g transform="matrix(1, 0, 0, 1, 106, 1412)">
			<g class="st0">
				<path class="st1" d="M82.9,124.6c-11.6,3.9-22.4,6-33.3,6.5V88.2c21.2-3.6,36.1-11.6,45.1-23.9h48.7V235H82.9V124.6z"/>
			</g>
		</g>
		<g class="st0">
			<path class="st2" d="M228.2,1559.3v7.9c0,7.9-4.2,10.6-10,10.6s-10.1-2.7-10.1-10.5v-8c0-7.9,4.2-10.5,10.1-10.5
				C224,1548.8,228.2,1551.4,228.2,1559.3z M215.9,1557.7v11.2c0,1.9,0.9,2.9,2.3,2.9c1.4,0,2.2-1,2.2-2.8v-11.4
				c0-2-0.8-2.9-2.2-2.9C216.7,1554.9,215.9,1555.9,215.9,1557.7z"/>
			<path class="st2" d="M249.4,1549.6v6.2H244v21.3h-7.8v-21.3h-5.4v-6.2H249.4z"/>
			<path class="st2" d="M252.8,1549.6H264c4.3,0,7.4,2.4,7.4,6.7c0,3.7-1.5,5.4-4.2,6.4c3.1,1.2,4.7,2.9,4.7,6.8
				c0,3.7-2.1,7.5-7.3,7.5h-11.8V1549.6z M260.1,1560.6h1.3c1.9,0,2.7-0.9,2.7-2.9c0-2-0.8-2.8-2.7-2.8h-1.3V1560.6z M260.1,1571.6
				h1.7c2,0,2.8-1,2.8-2.8c0-2.1-0.8-3.2-2.8-3.2h-1.7V1571.6z"/>
			<path class="st2" d="M283.5,1564.3v4.2c0,2.2,0.6,3.6,2.5,3.6s2.5-1.4,2.5-3.6v-1.6h7.3v2c0,6.6-5.2,8.9-9.8,8.9s-9.8-2.4-9.8-9
				v-11.2c0-6.5,5.2-8.8,9.8-8.8s9.8,2.3,9.8,8.9v6.5H283.5z M288.5,1559.3v-1c0-2.9-0.6-4-2.5-4c-1.8,0-2.5,1.2-2.5,4v1H288.5z"/>
			<path class="st2" d="M317,1549.6v6.2h-5.4v21.3h-7.8v-21.3h-5.4v-6.2H317z"/>
			<path class="st2" d="M328.1,1559.1h3.3c5.8,0,8.7,3.4,8.7,8.8c0,6-2.9,9.1-8.7,9.1h-11.1v-27.4h7.8V1559.1z M328.1,1571.3h1.2
				c2.2,0,3.4-1,3.4-3.1c0-2.3-1.1-3.4-3.2-3.4h-1.4V1571.3z"/>
			<path class="st2" d="M370,1560.1v-10.5h7.8v27.4H370v-11.1h-4.2v11.1h-7.8v-27.4h7.8v10.5H370z"/>
			<path class="st2" d="M382.8,1558.5c0-5.7,2.9-9.7,9.9-9.7s10.1,2.8,10.1,7.9v15.7c0,2.5,0.1,3.5,0.6,4.6h-7.4l-0.5-3.5
				c-1.1,2.2-2.5,4.2-6.4,4.2c-4.2,0-6.7-2-6.7-7.4c0-4.1,1.7-6.4,5-8.1l5.3-2.7c1.7-0.9,2.3-1.4,2.3-3.1c0-1.1-0.6-2.2-2.4-2.2
				c-1.7,0-2.5,1.2-2.5,3.3v1H382.8z M391.6,1565.7c-1.2,0.7-1.5,1.9-1.5,3.5c0,1.9,0.6,2.7,2.1,2.7c1.8,0,2.8-1.3,2.8-4.1v-4.3
				C394.8,1563.7,392.8,1565,391.6,1565.7z"/>
			<path class="st2" d="M421.2,1549.6h11.2c4.3,0,7.4,2.4,7.4,6.7c0,3.7-1.5,5.4-4.2,6.4c3.1,1.2,4.7,2.9,4.7,6.8
				c0,3.7-2.1,7.5-7.3,7.5h-11.8V1549.6z M428.6,1560.6h1.3c1.9,0,2.7-0.9,2.7-2.9c0-2-0.8-2.8-2.7-2.8h-1.3V1560.6z M428.6,1571.6
				h1.7c2,0,2.8-1,2.8-2.8c0-2.1-0.8-3.2-2.8-3.2h-1.7V1571.6z"/>
			<path class="st2" d="M464.7,1565.4v1.5c0,7.8-3.8,10.8-10,10.8s-10-3.3-10-9.9v-8.6c0-7.9,4.3-10.5,10.1-10.5
				c5.8,0,10,2.6,10,10.5v0.8h-7.8v-2.4c0-2-0.8-2.8-2.2-2.8c-1.4,0-2.3,0.9-2.3,2.4v11.6c0,1.9,0.8,3,2.3,3c1.4,0,2.3-1,2.3-3v-3.4
				H464.7z"/>
			<path class="st2" d="M476.2,1564.3v4.2c0,2.2,0.6,3.6,2.5,3.6c1.9,0,2.5-1.4,2.5-3.6v-1.6h7.3v2c0,6.6-5.2,8.9-9.8,8.9
				c-4.7,0-9.8-2.4-9.8-9v-11.2c0-6.5,5.2-8.8,9.8-8.8c4.7,0,9.8,2.3,9.8,8.9v6.5H476.2z M481.2,1559.3v-1c0-2.9-0.6-4-2.5-4
				c-1.8,0-2.5,1.2-2.5,4v1H481.2z"/>
		</g>
		<g class="st0">
			<path class="st2" d="M215.9,1608.3h-7.5v-5.7h0.6c4.7,0,8.5-2,9.2-5.5h5.6v35.8h-7.9V1608.3z"/>
			<path class="st2" d="M244.2,1596.4c8.9,0,11.1,4.9,11.1,10v17.2c0,5.1-2.1,10.1-11.1,10.1c-8.5,0-10.9-4.9-10.9-10.1v-17.2
				C233.3,1601.3,235.7,1596.4,244.2,1596.4z M241.4,1606.3v17.6c0,2.4,0.4,3.7,2.7,3.7c2.3,0,3.1-1.3,3.1-3.7v-17.6
				c0-2.4-0.7-3.7-3.1-3.7C241.9,1602.6,241.4,1603.9,241.4,1606.3z"/>
			<path class="st2" d="M273,1605.6h11.2c4.3,0,7.4,2.4,7.4,6.7c0,3.7-1.5,5.4-4.2,6.4c3.1,1.2,4.7,2.9,4.7,6.8
				c0,3.7-2.1,7.5-7.3,7.5H273V1605.6z M280.4,1616.6h1.3c1.9,0,2.7-0.9,2.7-2.9c0-2-0.8-2.8-2.7-2.8h-1.3V1616.6z M280.4,1627.6
				h1.7c2,0,2.8-1,2.8-2.8c0-2.1-0.8-3.2-2.8-3.2h-1.7V1627.6z"/>
			<path class="st2" d="M316.5,1615.3v7.9c0,7.9-4.2,10.6-10,10.6s-10.1-2.7-10.1-10.5v-8c0-7.9,4.2-10.5,10.1-10.5
				C312.2,1604.8,316.5,1607.4,316.5,1615.3z M304.1,1613.7v11.2c0,1.9,0.9,2.9,2.3,2.9c1.4,0,2.2-1,2.2-2.8v-11.4
				c0-2-0.8-2.9-2.2-2.9C304.9,1610.9,304.1,1611.9,304.1,1613.7z"/>
			<path class="st2" d="M340.8,1605.6v27.4h-7.8v-21.3h-4.2v21.3h-7.8v-27.4H340.8z"/>
			<path class="st2" d="M353.7,1642.3h-7.8v-36.8h7v3.3c1.6-2.8,4.1-4,6.3-4c4,0,6.8,3.1,6.8,8.6v12.5c0,4.7-3.2,7.8-6.8,7.8
				c-2.1,0-3.8-1-5.6-3.2V1642.3z M353.7,1614.5v9.9c0,2.2,0.8,3.2,2.3,3.2s2.3-1,2.3-3.2v-9.9c0-2.2-0.8-3.4-2.3-3.4
				S353.7,1612.3,353.7,1614.5z"/>
			<path class="st2" d="M390.6,1615.3v7.9c0,7.9-4.2,10.6-10,10.6c-5.8,0-10.1-2.7-10.1-10.5v-8c0-7.9,4.2-10.5,10.1-10.5
				C386.3,1604.8,390.6,1607.4,390.6,1615.3z M378.2,1613.7v11.2c0,1.9,0.9,2.9,2.3,2.9c1.4,0,2.2-1,2.2-2.8v-11.4
				c0-2-0.8-2.9-2.2-2.9C379,1610.9,378.2,1611.9,378.2,1613.7z"/>
			<path class="st2" d="M414.9,1621.4v1.5c0,7.8-3.8,10.8-10,10.8s-10-3.3-10-9.9v-8.6c0-7.9,4.3-10.5,10.1-10.5
				c5.8,0,10,2.6,10,10.5v0.8h-7.8v-2.4c0-2-0.8-2.8-2.2-2.8c-1.4,0-2.3,0.9-2.3,2.4v11.6c0,1.9,0.8,3,2.3,3c1.4,0,2.3-1,2.3-3v-3.4
				H414.9z"/>
			<path class="st2" d="M439.2,1615.3v7.9c0,7.9-4.2,10.6-10,10.6c-5.8,0-10.1-2.7-10.1-10.5v-8c0-7.9,4.2-10.5,10.1-10.5
				C435,1604.8,439.2,1607.4,439.2,1615.3z M426.9,1613.7v11.2c0,1.9,0.9,2.9,2.3,2.9c1.4,0,2.2-1,2.2-2.8v-11.4
				c0-2-0.8-2.9-2.2-2.9C427.6,1610.9,426.9,1611.9,426.9,1613.7z"/>
			<path class="st2" d="M443.9,1605.6h11.2c4.3,0,7.4,2.4,7.4,6.7c0,3.7-1.5,5.4-4.2,6.4c3.1,1.2,4.7,2.9,4.7,6.8
				c0,3.7-2.1,7.5-7.3,7.5h-11.8V1605.6z M451.3,1616.6h1.3c1.9,0,2.7-0.9,2.7-2.9c0-2-0.8-2.8-2.7-2.8h-1.3V1616.6z M451.3,1627.6
				h1.7c2,0,2.8-1,2.8-2.8c0-2.1-0.8-3.2-2.8-3.2h-1.7V1627.6z"/>
		</g>
	</g>
	<g class="st0">
		<path class="st2" d="M211.1,1664.9c0-3.5,1.5-6.4,5.2-6.4c3,0,5.1,2.2,5.1,5.7c0,4.6-4.4,7.9-7.3,10.9c-0.4,0.3-1.2,1.4-1.2,3.1
			h8.5v1.7H211v-1.5c0-3.1,1.6-4.2,3.9-6.6c2.9-3,4.6-4.2,4.6-7.8c0-2-1.2-4-3.4-4c-2.6,0-3.2,2.5-3.2,4.8H211.1z"/>
		<path class="st2" d="M229.1,1658.6c4.7,0,5.3,5.8,5.3,10.9s-0.3,10.9-5.3,10.9c-4.9,0-5.3-5.8-5.3-10.9S224.3,1658.6,229.1,1658.6
			z M229.1,1678.9c2.4,0,3.4-2.7,3.4-9.3c0-6.7-1.1-9.4-3.4-9.4c-2.4,0-3.4,2.7-3.4,9.4C225.7,1676.2,226.8,1678.9,229.1,1678.9z"/>
		<path class="st2" d="M252.4,1674.8c0,3-1.1,5.7-4.4,5.7c-4.7,0-4.9-4.9-4.9-8.4c0-3.4,0.4-8.3,4.8-8.3c2.9,0,4.3,2.4,4.3,5.1h-1.7
			c0-1.8-0.9-3.6-2.8-3.6c-2.8,0-3,3.7-3,7.1c0,3.4,0.3,6.7,3.2,6.7c2.3,0,2.5-2.5,2.7-4.2H252.4z"/>
		<path class="st2" d="M256.3,1672c0,3.8,0.3,7,3,7c2.4,0,2.6-2.2,2.8-4.1h1.7c0,2.8-1.3,5.6-4.5,5.6c-4.4,0-4.6-5-4.6-8.3
			c0-3.2,0.2-8.4,4.6-8.4c3.7,0,4.6,3.7,4.6,6.7v1.6H256.3z M262.1,1670.5c0-2-0.2-5.3-2.9-5.3c-2.6,0-2.9,3.5-2.9,5.3H262.1z"/>
		<path class="st2" d="M268.6,1671.6l5.2-7.5h2.1l-4.3,5.9l4.4,10h-1.8l-3.8-8.3l-1.7,2.5v5.8h-1.7v-15.9h1.7V1671.6z"/>
		<path class="st2" d="M278.5,1664.1l3.3,12.9h0.1l3.4-12.9h1.7l-5,18.2c-0.5,2-1.6,3.2-3.5,3.2c-0.9,0-1.2-0.1-1.4-0.1v-1.5
			c0.2,0,0.7,0.1,0.9,0.1c2.3,0,2.4-1.8,2.8-3.9l-4.1-16H278.5z"/>
		<path class="st2" d="M290.9,1670.8h5.7v-6.7h1.7v15.9h-1.7v-7.7h-5.7v7.7h-1.7v-15.9h1.7V1670.8z"/>
		<path class="st2" d="M312.1,1664.1v14.4h1.4v5.7h-1.6v-4.3h-9.5v4.3h-1.6v-5.7h1.2c1.3-2.3,2.1-4.7,2.1-9.9v-4.6H312.1z
			 M305.8,1665.6v3.8c0,4.4-0.9,7.1-2,9.2h6.6v-13H305.8z"/>
		<path class="st2" d="M318.4,1677.5v2.5c0,1.9-0.2,3.8-2,3.9v-1.1c0.8-0.1,0.9-1.6,0.9-2.8h-0.9v-2.5H318.4z"/>
		<path class="st2" d="M330.1,1664.1v3.8c0,2.1,0.9,3.1,2.5,3.1c1.3,0,2.2-0.1,3-0.4v-6.5h1.7v15.9h-1.7v-7.9
			c-1,0.4-1.7,0.4-3.3,0.4c-2.7,0-3.8-1.7-3.8-4.9v-3.5H330.1z"/>
		<path class="st2" d="M348.6,1664.1v1.5h-3.8v14.4h-1.7v-14.4h-3.8v-1.5H348.6z"/>
		<path class="st2" d="M350,1672.1c0-3.5,0.5-8.3,5-8.3c4.5,0,4.9,4.8,4.9,8.3c0,3.6-0.5,8.4-5,8.4
			C350.5,1680.4,350,1675.7,350,1672.1z M358.3,1672.1c0-2.5-0.3-6.9-3.3-6.9c-3,0-3.3,4.4-3.3,6.9c0,3.1,0.3,6.9,3.2,6.9
			C358,1679,358.3,1675.3,358.3,1672.1z"/>
		<path class="st2" d="M364,1666.8c0.5-1.4,1.9-2.6,3.4-2.6c3.3,0,5,2,5,8.1c0,5.7-1.7,8.1-5,8.1c-3.3,0-4.9-2.2-4.9-9.1
			c0-8.5,1.7-10.4,5.3-11.5c1.9-0.5,2.3-0.8,2.6-1.5h1.4c-0.5,1.6-1.3,2.1-3.7,2.8C365.8,1661.9,364.4,1663,364,1666.8L364,1666.8z
			 M370.7,1672.3c0-5.2-1.3-6.6-3.4-6.6c-2,0-3.3,2.4-3.3,6.6c0,5.3,1.3,6.7,3.2,6.7C369.2,1679,370.7,1677.6,370.7,1672.3z"/>
		<path class="st2" d="M377,1670.8h3.2c2.8,0,4.3,1.7,4.3,4.6c0,2.8-1.4,4.6-4.3,4.6h-4.9v-15.9h1.7V1670.8z M377,1678.5h2.9
			c1.7,0,2.9-0.9,2.9-3.2c0-2.2-1.1-3.1-3-3.1H377V1678.5z M388.6,1680h-1.7v-15.9h1.7V1680z"/>
	</g>
	<g class="st0">
		<path class="st2" d="M211.2,1705.1c0-3.5,0.5-8.3,5-8.3c4.5,0,4.9,4.8,4.9,8.3c0,3.6-0.5,8.4-5,8.4
			C211.7,1713.4,211.2,1708.7,211.2,1705.1z M219.5,1705.1c0-2.5-0.3-6.9-3.3-6.9c-3,0-3.3,4.4-3.3,6.9c0,3.1,0.3,6.9,3.2,6.9
			C219.2,1712,219.5,1708.3,219.5,1705.1z"/>
		<path class="st2" d="M231.9,1697.1v1.5h-3.8v14.4h-1.7v-14.4h-3.8v-1.5H231.9z"/>
		<path class="st2" d="M233.9,1697.1h4.2c2.9,0,4.3,1.7,4.3,3.9c0,2-1,3.2-2.3,3.5c1.4,0.5,2.9,1.3,2.9,4.1c0,2.6-1.5,4.4-4,4.4
			h-5.2V1697.1z M235.6,1703.8h2.4c1.9,0,2.8-0.8,2.8-2.5c0-1.7-0.9-2.7-2.8-2.7h-2.4V1703.8z M235.6,1711.5h2.9
			c1.6,0,2.8-0.8,2.8-3c0-2.2-1.2-3.3-3.1-3.3h-2.7V1711.5z"/>
		<path class="st2" d="M247.1,1705c0,3.8,0.3,7,3,7c2.4,0,2.6-2.2,2.8-4.1h1.7c0,2.8-1.3,5.6-4.5,5.6c-4.4,0-4.6-5-4.6-8.3
			c0-3.2,0.2-8.4,4.6-8.4c3.7,0,4.6,3.7,4.6,6.7v1.6H247.1z M252.9,1703.5c0-2-0.2-5.3-2.9-5.3c-2.6,0-2.9,3.5-2.9,5.3H252.9z"/>
		<path class="st2" d="M265.5,1697.1v1.5h-3.8v14.4H260v-14.4h-3.8v-1.5H265.5z"/>
		<path class="st2" d="M276.9,1697.1v15.9h-1.7v-10.5c0-1.2,0.2-3.2,0.4-4.1h0c-0.2,0.7-0.8,2.1-1.1,3l-4.9,11.5h-2.1v-15.9h1.7
			v10.7c0,1.2-0.2,3.2-0.4,4.1h0c0.3-0.8,0.8-2.1,1.1-3l4.9-11.8H276.9z"/>
		<path class="st2" d="M288.2,1697.1v1.5h-3.8v14.4h-1.7v-14.4h-3.8v-1.5H288.2z"/>
		<path class="st2" d="M291.8,1703.8h3.2c2.8,0,4.3,1.7,4.3,4.6c0,2.8-1.4,4.6-4.3,4.6h-4.9v-15.9h1.7V1703.8z M291.8,1711.5h2.9
			c1.7,0,2.9-0.9,2.9-3.2c0-2.2-1.1-3.1-3-3.1h-2.8V1711.5z"/>
		<path class="st2" d="M317.7,1697.1v15.9H316v-14.4h-5.7v14.4h-1.7v-15.9H317.7z"/>
		<path class="st2" d="M322.9,1718.5h-1.7v-21.4h1.6v1.4h0.1c0.6-1,1.8-1.8,3.2-1.8c4.3,0,4.9,4.5,4.9,7.9c0,4.3-0.5,8.8-4.8,8.8
			c-1.4,0-2.5-0.5-3.3-1.7V1718.5z M322.9,1704.8c0,3.1,0.2,7.2,3.1,7.2s3.3-3.4,3.3-7.2c0-2.5-0.3-6.6-3.2-6.6
			C323,1698.2,322.9,1702.3,322.9,1704.8z"/>
		<path class="st2" d="M343.3,1713.1c-0.3,0.2-0.7,0.2-1.1,0.2c-0.9,0-1.4-0.5-1.6-1.6h0c-0.8,1.2-2.1,1.7-3.5,1.7
			c-2.9,0-3.6-1.7-3.6-4.2c0-2.2,0.8-3.6,2.6-4.4l3.4-1.5c0.9-0.4,1.1-1,1.1-2.5c0-1.7-1-2.6-2.4-2.6c-2.3,0-2.3,1.5-2.6,2.9h-1.6
			c0-2.9,1.5-4.4,4.3-4.4c2.9,0,4.1,1.5,4.1,4.3v9.8c0,1,0.1,1,1.1,1.1V1713.1z M337.3,1706c-1.7,0.8-2.2,1.5-2.2,3.2
			c0,1.6,0.5,2.8,2.2,2.8c2.7,0,3.2-2.6,3.2-4.4v-3.1C339.3,1705,338.3,1705.4,337.3,1706z"/>
		<path class="st2" d="M345.6,1697.1h4.2c2.9,0,4.3,1.7,4.3,3.9c0,2-1,3.2-2.3,3.5c1.4,0.5,2.9,1.3,2.9,4.1c0,2.6-1.5,4.4-4,4.4
			h-5.2V1697.1z M347.3,1703.8h2.4c1.9,0,2.8-0.8,2.8-2.5c0-1.7-0.9-2.7-2.8-2.7h-2.4V1703.8z M347.3,1711.5h2.9
			c1.6,0,2.8-0.8,2.8-3c0-2.2-1.2-3.3-3.1-3.3h-2.7V1711.5z"/>
		<path class="st2" d="M367.2,1697.1v15.9h-1.7v-10.5c0-1.2,0.2-3.2,0.4-4.1h0c-0.2,0.7-0.8,2.1-1.1,3l-4.9,11.5h-2.1v-15.9h1.7
			v10.7c0,1.2-0.2,3.2-0.4,4.1h0c0.3-0.8,0.8-2.1,1.1-3l4.9-11.8H367.2z"/>
		<path class="st2" d="M380.3,1697.1v15.9h-1.7v-14.4h-4.9v7.4c0,5.9-1.3,7.2-3,7.2c-0.6,0-1,0-1.3-0.1v-1.4c0.3,0.1,0.6,0.1,1,0.1
			c1.1,0,1.7-0.8,1.7-6.4v-8.2H380.3z"/>
		<path class="st2" d="M385.5,1703.8h3.2c2.8,0,4.3,1.7,4.3,4.6c0,2.8-1.4,4.6-4.3,4.6h-4.9v-15.9h1.7V1703.8z M385.5,1711.5h2.9
			c1.7,0,2.9-0.9,2.9-3.2c0-2.2-1.1-3.1-3-3.1h-2.8V1711.5z"/>
		<path class="st2" d="M397.6,1703.8h5.7v-6.7h1.7v15.9h-1.7v-7.7h-5.7v7.7h-1.7v-15.9h1.7V1703.8z"/>
		<path class="st2" d="M407.9,1705.1c0-3.5,0.5-8.3,5-8.3c4.5,0,4.9,4.8,4.9,8.3c0,3.6-0.5,8.4-5,8.4
			C408.4,1713.4,407.9,1708.7,407.9,1705.1z M416.2,1705.1c0-2.5-0.3-6.9-3.3-6.9c-3,0-3.3,4.4-3.3,6.9c0,3.1,0.3,6.9,3.2,6.9
			C415.9,1712,416.2,1708.3,416.2,1705.1z"/>
	</g>
</g>
</svg>
